<svg width="596" height="353" viewBox="0 0 596 353" fill="none" xmlns="http://www.w3.org/2000/svg">
<path d="M50 223C77.6142 223 100 200.614 100 173C100 145.386 77.6142 123 50 123C22.3858 123 0 145.386 0 173C0 200.614 22.3858 223 50 223Z" fill="#2B2E3A"/>
<path d="M42.8552 156.627C35.4658 155.281 29.623 156.69 27.2944 160.723C25.5567 163.733 26.0534 167.723 28.4992 171.989C28.6306 172.23 28.8823 172.381 29.1569 172.384C29.4316 172.386 29.6862 172.24 29.8225 172.002C29.9588 171.764 29.9554 171.47 29.8137 171.235C27.6109 167.392 27.1821 163.949 28.6069 161.481C30.5414 158.13 35.7528 156.874 42.5836 158.118C42.992 158.186 43.3794 157.913 43.4536 157.506C43.5278 157.099 43.2614 156.707 42.8552 156.627ZM32.3418 177.173C35.3297 180.457 39.2115 183.537 43.6387 186.092C54.3578 192.281 65.7695 193.935 71.3935 190.101C71.6224 189.95 71.7524 189.688 71.7335 189.415C71.7146 189.142 71.5497 188.9 71.3022 188.782C71.0547 188.665 70.7632 188.69 70.5396 188.849C65.5061 192.281 54.6661 190.709 44.3965 184.78C40.1018 182.301 36.3427 179.318 33.4628 176.153C33.2809 175.952 33.0051 175.863 32.7398 175.92C32.4745 175.978 32.2602 176.173 32.178 176.432C32.0958 176.69 32.1583 176.973 32.3418 177.173Z" fill="#9FEAF9"/>
<path d="M69.5993 176.252C74.4379 170.535 76.1272 164.786 73.8034 160.762C72.0936 157.8 68.4789 156.236 63.6747 156.174C63.2604 156.174 62.9234 156.507 62.9179 156.922C62.9126 157.336 63.2409 157.678 63.655 157.689C67.9756 157.745 71.09 159.093 72.4911 161.52C74.4211 164.863 72.9145 169.989 68.4425 175.272C68.2639 175.479 68.2099 175.765 68.3012 176.022C68.3924 176.279 68.6147 176.467 68.8834 176.515C69.152 176.562 69.4254 176.462 69.5993 176.252ZM57.1644 156.879C52.7895 157.817 48.1328 159.649 43.6608 162.231C32.5952 168.62 25.3768 178.041 26.3793 184.871C26.4157 185.142 26.5947 185.372 26.848 185.474C27.1013 185.575 27.3897 185.533 27.6031 185.363C27.8164 185.193 27.9217 184.921 27.8788 184.651C26.9886 178.586 33.831 169.657 44.4186 163.544C48.7568 161.039 53.2658 159.264 57.4818 158.361C57.7503 158.308 57.9695 158.115 58.0551 157.855C58.1407 157.595 58.0794 157.309 57.8948 157.107C57.7103 156.904 57.431 156.818 57.1644 156.879Z" fill="#9FEAF9"/>
<path d="M39.2373 189.607C41.7674 196.671 45.9062 201.02 50.5601 201.02C53.9543 201.02 57.0945 198.707 59.5433 194.633C59.6876 194.401 59.6956 194.109 59.5642 193.869C59.4329 193.629 59.1827 193.479 58.9093 193.475C58.6359 193.472 58.3819 193.616 58.2445 193.852C56.0437 197.513 53.3405 199.505 50.5601 199.505C46.6941 199.505 43.0027 195.625 40.6644 189.096C40.5772 188.836 40.3561 188.643 40.0865 188.592C39.8168 188.541 39.5406 188.64 39.3645 188.851C39.1884 189.061 39.1399 189.35 39.2376 189.607H39.2373ZM62.3454 188.225C63.6553 184.04 64.3586 179.212 64.3586 174.181C64.3586 161.627 59.9647 150.806 53.7065 148.027C53.3262 147.868 52.8884 148.042 52.7211 148.418C52.5538 148.795 52.7184 149.237 53.0916 149.412C58.6732 151.891 62.8429 162.161 62.8429 174.181C62.8429 179.062 62.1618 183.737 60.8993 187.772C60.814 188.032 60.875 188.317 61.0592 188.519C61.2433 188.721 61.5219 188.809 61.7884 188.748C62.0548 188.687 62.2678 188.487 62.3457 188.225H62.3454ZM76.6168 187.483C76.6168 185.48 74.9931 183.856 72.9901 183.856C70.9871 183.856 69.3634 185.48 69.3634 187.483C69.3634 189.486 70.9871 191.109 72.9901 191.109C74.9931 191.109 76.6168 189.486 76.6168 187.483ZM75.1014 187.483C75.1014 188.237 74.699 188.934 74.0457 189.311C73.3925 189.688 72.5877 189.688 71.9345 189.311C71.2812 188.934 70.8788 188.237 70.8788 187.483C70.8788 186.317 71.8241 185.371 72.9901 185.371C74.1561 185.371 75.1014 186.317 75.1014 187.483ZM28.0777 191.109C30.081 191.109 31.7047 189.486 31.7047 187.483C31.7047 185.48 30.0807 183.856 28.0777 183.856C26.075 183.856 24.451 185.48 24.451 187.483C24.451 189.486 26.075 191.109 28.0777 191.109ZM28.0777 189.594C26.9117 189.594 25.9664 188.649 25.9664 187.483C25.9664 186.317 26.9117 185.371 28.0777 185.371C29.2437 185.371 30.189 186.317 30.189 187.483C30.189 188.649 29.2437 189.594 28.0777 189.594Z" fill="#9FEAF9"/>
<path d="M50.56 151.726C52.563 151.726 54.1867 150.103 54.1867 148.1C54.1867 146.097 52.563 144.473 50.56 144.473C48.557 144.473 46.9333 146.097 46.9333 148.1C46.9333 150.103 48.557 151.726 50.56 151.726ZM50.56 150.211C49.394 150.211 48.4487 149.266 48.4487 148.1C48.4487 146.934 49.394 145.988 50.56 145.988C51.726 145.988 52.6713 146.934 52.6713 148.1C52.6713 149.266 51.726 150.211 50.56 150.211ZM51.1138 176.746C49.6973 177.052 48.3018 176.152 47.9952 174.735C47.6895 173.319 48.5896 171.923 50.0059 171.616C51.4224 171.31 52.8179 172.211 53.1248 173.627C53.4308 175.044 52.5306 176.439 51.1138 176.746Z" fill="#9FEAF9"/>
<path d="M121.047 177L111 182V172L121.047 177Z" fill="#2B2E3A"/>
<path d="M133.104 177L123.057 182V172L133.104 177Z" fill="#2B2E3A"/>
<path d="M145.16 177L135.113 182V172L145.16 177Z" fill="#2B2E3A"/>
<path d="M157.887 177L147.84 182V172L157.887 177Z" fill="#2B2E3A"/>
<path d="M169.943 177L159.896 182V172L169.943 177Z" fill="#2B2E3A"/>
<path d="M182 177L171.953 182V172L182 177Z" fill="#2B2E3A"/>
<path d="M304.898 91.4197L304.161 102.401L295.399 97.5263L304.898 91.4197Z" fill="#C0E3F5"/>
<path d="M310.939 81.0164L310.202 91.9972L301.44 87.123L310.939 81.0164Z" fill="#C0E3F5"/>
<path d="M316.98 70.6132L316.243 81.594L307.481 76.7198L316.98 70.6132Z" fill="#C0E3F5"/>
<path d="M323.356 59.6319L322.62 70.6127L313.858 65.7384L323.356 59.6319Z" fill="#C0E3F5"/>
<path d="M329.394 49.2165L328.657 60.1973L319.895 55.3231L329.394 49.2165Z" fill="#C0E3F5"/>
<path d="M335.435 38.8133L334.698 49.7941L325.936 44.9199L335.435 38.8133Z" fill="#C0E3F5"/>
<path d="M298.242 101.923L297.505 112.904L288.743 108.03L298.242 101.923Z" fill="#C0E3F5"/>
<path d="M329.66 114.122L325.212 124.189L318.645 116.612L329.66 114.122Z" fill="#C0E3F5"/>
<path d="M338.895 106.412L334.447 116.479L327.88 108.902L338.895 106.412Z" fill="#C0E3F5"/>
<path d="M348.13 98.7026L343.682 108.769L337.115 101.192L348.13 98.7026Z" fill="#C0E3F5"/>
<path d="M357.877 90.5645L353.429 100.631L346.863 93.054L357.877 90.5645Z" fill="#C0E3F5"/>
<path d="M367.113 82.8423L362.665 92.9089L356.099 85.3318L367.113 82.8423Z" fill="#C0E3F5"/>
<path d="M376.348 75.1326L371.9 85.1992L365.333 77.6221L376.348 75.1326Z" fill="#C0E3F5"/>
<path d="M319.813 121.716L315.365 131.782L308.798 124.205L319.813 121.716Z" fill="#C0E3F5"/>
<path d="M348.152 146.841L340.529 154.779L336.95 145.413L348.152 146.841Z" fill="#C0E3F5"/>
<path d="M359.466 142.755L351.844 150.693L348.265 141.327L359.466 142.755Z" fill="#C0E3F5"/>
<path d="M370.781 138.668L363.158 146.606L359.579 137.24L370.781 138.668Z" fill="#C0E3F5"/>
<path d="M382.724 134.355L375.102 142.293L371.523 132.927L382.724 134.355Z" fill="#C0E3F5"/>
<path d="M394.044 130.257L386.422 138.196L382.843 128.829L394.044 130.257Z" fill="#C0E3F5"/>
<path d="M405.359 126.171L397.737 134.109L394.158 124.743L405.359 126.171Z" fill="#C0E3F5"/>
<path d="M336.301 150.609L328.678 158.547L325.099 149.181L336.301 150.609Z" fill="#C0E3F5"/>
<path d="M351.796 181.307L341.918 186.159L341.758 176.134L351.796 181.307Z" fill="#C0E3F5"/>
<path d="M363.826 181.337L353.948 186.189L353.788 176.164L363.826 181.337Z" fill="#C0E3F5"/>
<path d="M375.856 181.367L365.978 186.219L365.818 176.194L375.856 181.367Z" fill="#C0E3F5"/>
<path d="M388.554 181.399L378.676 186.251L378.516 176.226L388.554 181.399Z" fill="#C0E3F5"/>
<path d="M400.593 181.42L390.715 186.272L390.555 176.247L400.593 181.42Z" fill="#C0E3F5"/>
<path d="M412.623 181.45L402.745 186.302L402.585 176.277L412.623 181.45Z" fill="#C0E3F5"/>
<path d="M339.372 180.794L329.494 185.647L329.334 175.622L339.372 180.794Z" fill="#C0E3F5"/>
<path d="M347.757 215.946L336.815 217.128L340.094 207.652L347.757 215.946Z" fill="#C0E3F5"/>
<path d="M359.051 220.089L348.109 221.27L351.388 211.795L359.051 220.089Z" fill="#C0E3F5"/>
<path d="M370.345 224.232L359.403 225.413L362.682 215.938L370.345 224.232Z" fill="#C0E3F5"/>
<path d="M382.267 228.605L371.325 229.786L374.604 220.311L382.267 228.605Z" fill="#C0E3F5"/>
<path d="M393.572 232.742L382.631 233.923L385.909 224.448L393.572 232.742Z" fill="#C0E3F5"/>
<path d="M404.867 236.885L393.925 238.066L397.204 228.591L404.867 236.885Z" fill="#C0E3F5"/>
<path d="M336.257 211.216L325.315 212.397L328.594 202.921L336.257 211.216Z" fill="#C0E3F5"/>
<path d="M328.013 241.829L317.597 238.275L324.573 231.073L328.013 241.829Z" fill="#C0E3F5"/>
<path d="M336.498 250.357L326.082 246.803L333.058 239.601L336.498 250.357Z" fill="#C0E3F5"/>
<path d="M344.983 258.884L334.567 255.331L341.543 248.129L344.983 258.884Z" fill="#C0E3F5"/>
<path d="M353.94 267.886L343.524 264.332L350.5 257.13L353.94 267.886Z" fill="#C0E3F5"/>
<path d="M362.438 276.413L352.022 272.86L358.998 265.658L362.438 276.413Z" fill="#C0E3F5"/>
<path d="M370.923 284.941L360.507 281.387L367.483 274.186L370.923 284.941Z" fill="#C0E3F5"/>
<path d="M319.59 232.681L309.174 229.127L316.15 221.926L319.59 232.681Z" fill="#C0E3F5"/>
<path d="M300.889 260.124L292.951 252.501L302.317 248.922L300.889 260.124Z" fill="#C0E3F5"/>
<path d="M304.976 271.439L297.038 263.816L306.404 260.237L304.976 271.439Z" fill="#C0E3F5"/>
<path d="M309.062 282.753L301.124 275.131L310.49 271.552L309.062 282.753Z" fill="#C0E3F5"/>
<path d="M313.375 294.697L305.437 287.074L314.803 283.495L313.375 294.697Z" fill="#C0E3F5"/>
<path d="M317.473 306.017L309.535 298.394L318.901 294.815L317.473 306.017Z" fill="#C0E3F5"/>
<path d="M321.559 317.331L313.621 309.709L322.987 306.13L321.559 317.331Z" fill="#C0E3F5"/>
<path d="M297.122 248.273L289.183 240.651L298.549 237.072L297.122 248.273Z" fill="#C0E3F5"/>
<path d="M440 1H344C341.791 1 340 2.79086 340 5V25C340 27.2091 341.791 29 344 29H440C442.209 29 444 27.2091 444 25V5C444 2.79086 442.209 1 440 1Z" fill="#E3FFFB" stroke="#BCF3EE" stroke-width="2"/>
<path d="M355.269 17.8535H351.775L351.099 20H349.082L352.507 10.0469H354.551L357.962 20H355.945L355.269 17.8535ZM352.268 16.2881H354.776L353.546 12.3779H353.505L352.268 16.2881ZM363.246 18.9336C363.018 19.321 362.729 19.6195 362.378 19.8291C362.027 20.0387 361.624 20.1436 361.168 20.1436C360.389 20.1436 359.779 19.894 359.339 19.395C358.9 18.896 358.68 18.1201 358.68 17.0674V12.6035H360.669V17.0811C360.669 17.6188 360.76 18.005 360.942 18.2397C361.125 18.4744 361.394 18.5918 361.749 18.5918C362.068 18.5918 362.341 18.5405 362.569 18.438C362.797 18.3354 362.984 18.1839 363.13 17.9834V12.6035H365.126V20H363.424L363.246 18.9336ZM369.002 10.792V12.6035H370.246V14.0049H369.002V17.7715C369.002 18.0586 369.061 18.2637 369.18 18.3867C369.298 18.5098 369.458 18.5713 369.658 18.5713C369.763 18.5713 369.853 18.5656 369.928 18.5542C370.003 18.5428 370.091 18.5234 370.191 18.4961L370.362 19.9385C370.162 20.0068 369.966 20.0581 369.774 20.0923C369.583 20.1265 369.376 20.1436 369.152 20.1436C368.464 20.1436 367.934 19.9544 367.563 19.5762C367.192 19.1979 367.006 18.5986 367.006 17.7783V14.0049H365.926V12.6035H367.006V10.792H369.002ZM371.21 16.2334C371.21 15.1305 371.518 14.2271 372.133 13.5229C372.748 12.8188 373.6 12.4668 374.689 12.4668C375.783 12.4668 376.64 12.8177 377.26 13.5195C377.88 14.2214 378.189 15.126 378.189 16.2334V16.377C378.189 17.4889 377.881 18.3947 377.263 19.0942C376.646 19.7938 375.792 20.1436 374.703 20.1436C373.609 20.1436 372.754 19.7938 372.136 19.0942C371.519 18.3947 371.21 17.4889 371.21 16.377V16.2334ZM373.199 16.377C373.199 17.0514 373.318 17.5926 373.555 18.0005C373.792 18.4084 374.174 18.6123 374.703 18.6123C375.218 18.6123 375.595 18.4072 375.834 17.9971C376.074 17.5869 376.193 17.0469 376.193 16.377V16.2334C376.193 15.5771 376.073 15.0417 375.831 14.627C375.59 14.2122 375.209 14.0049 374.689 14.0049C374.174 14.0049 373.797 14.2134 373.558 14.6304C373.319 15.0474 373.199 15.5817 373.199 16.2334V16.377ZM383.282 16.5137H379.427V14.9756H383.282V16.5137ZM389.414 18.9336C389.186 19.321 388.897 19.6195 388.546 19.8291C388.195 20.0387 387.792 20.1436 387.336 20.1436C386.557 20.1436 385.947 19.894 385.507 19.395C385.068 18.896 384.848 18.1201 384.848 17.0674V12.6035H386.837V17.0811C386.837 17.6188 386.928 18.005 387.11 18.2397C387.293 18.4744 387.562 18.5918 387.917 18.5918C388.236 18.5918 388.509 18.5405 388.737 18.438C388.965 18.3354 389.152 18.1839 389.298 17.9834V12.6035H391.294V20H389.592L389.414 18.9336ZM399.47 16.5068C399.47 17.6006 399.217 18.4801 398.711 19.1455C398.205 19.8109 397.499 20.1436 396.592 20.1436C396.204 20.1436 395.86 20.0718 395.56 19.9282C395.259 19.7847 395.001 19.5739 394.787 19.2959V22.8438H392.798V12.6035H394.596L394.712 13.4785C394.931 13.1549 395.194 12.9054 395.501 12.73C395.809 12.5545 396.168 12.4668 396.578 12.4668C397.494 12.4668 398.205 12.8245 398.711 13.54C399.217 14.2555 399.47 15.1966 399.47 16.3633V16.5068ZM397.474 16.3633C397.474 15.666 397.357 15.1009 397.125 14.668C396.893 14.235 396.537 14.0186 396.059 14.0186C395.758 14.0186 395.501 14.0801 395.29 14.2031C395.078 14.3262 394.91 14.5016 394.787 14.7295V17.9697C394.91 18.1794 395.078 18.3389 395.29 18.4482C395.501 18.5576 395.762 18.6123 396.072 18.6123C396.555 18.6123 396.91 18.4232 397.135 18.0449C397.361 17.6667 397.474 17.154 397.474 16.5068V16.3633ZM400.393 16.3633C400.393 15.1966 400.644 14.2555 401.148 13.54C401.652 12.8245 402.361 12.4668 403.277 12.4668C403.646 12.4668 403.979 12.5465 404.275 12.7061C404.572 12.8656 404.831 13.0934 405.055 13.3896V9.33594H407.058V20H405.342L405.178 19.0977C404.945 19.4395 404.671 19.6992 404.354 19.877C404.037 20.0547 403.674 20.1436 403.264 20.1436C402.357 20.1436 401.652 19.8109 401.148 19.1455C400.644 18.4801 400.393 17.6006 400.393 16.5068V16.3633ZM402.382 16.5068C402.382 17.154 402.491 17.6632 402.71 18.0347C402.929 18.4061 403.284 18.5918 403.776 18.5918C404.063 18.5918 404.314 18.5337 404.528 18.4175C404.743 18.3013 404.918 18.1315 405.055 17.9082V14.7568C404.918 14.5244 404.744 14.3433 404.532 14.2134C404.32 14.0835 404.073 14.0186 403.79 14.0186C403.302 14.0186 402.946 14.235 402.72 14.668C402.495 15.1009 402.382 15.666 402.382 16.3633V16.5068ZM412.943 20C412.87 19.8314 412.808 19.6536 412.755 19.4668C412.703 19.2799 412.665 19.0885 412.643 18.8926C412.438 19.2526 412.167 19.5511 411.833 19.7881C411.498 20.0251 411.098 20.1436 410.633 20.1436C409.858 20.1436 409.261 19.9442 408.842 19.5454C408.423 19.1466 408.213 18.6032 408.213 17.915C408.213 17.1904 408.492 16.6287 409.05 16.23C409.609 15.8312 410.423 15.6318 411.494 15.6318H412.608V15.0439C412.608 14.6885 412.515 14.4128 412.328 14.2168C412.141 14.0208 411.866 13.9229 411.501 13.9229C411.177 13.9229 410.928 14.0015 410.752 14.1587C410.577 14.3159 410.489 14.5335 410.489 14.8115L408.562 14.8047L408.555 14.7637C408.523 14.1393 408.794 13.6004 409.368 13.147C409.942 12.6935 410.697 12.4668 411.631 12.4668C412.515 12.4668 413.233 12.6912 413.784 13.1401C414.336 13.589 414.611 14.2282 414.611 15.0576V18.1133C414.611 18.4596 414.638 18.7855 414.69 19.0908C414.742 19.3962 414.826 19.6992 414.939 20H412.943ZM411.118 18.667C411.469 18.667 411.781 18.5804 412.055 18.4072C412.328 18.234 412.513 18.0335 412.608 17.8057V16.7598H411.494C411.07 16.7598 410.749 16.8657 410.53 17.0776C410.312 17.2896 410.202 17.5459 410.202 17.8467C410.202 18.0928 410.284 18.291 410.448 18.4414C410.612 18.5918 410.836 18.667 411.118 18.667ZM418.494 10.792V12.6035H419.738V14.0049H418.494V17.7715C418.494 18.0586 418.553 18.2637 418.672 18.3867C418.79 18.5098 418.95 18.5713 419.15 18.5713C419.255 18.5713 419.345 18.5656 419.42 18.5542C419.496 18.5428 419.583 18.5234 419.684 18.4961L419.854 19.9385C419.654 20.0068 419.458 20.0581 419.267 20.0923C419.075 20.1265 418.868 20.1436 418.645 20.1436C417.956 20.1436 417.427 19.9544 417.055 19.5762C416.684 19.1979 416.498 18.5986 416.498 17.7783V14.0049H415.418V12.6035H416.498V10.792H418.494ZM424.284 20.1436C423.218 20.1436 422.366 19.8018 421.728 19.1182C421.09 18.4346 420.771 17.5664 420.771 16.5137V16.2402C420.771 15.1419 421.072 14.2373 421.676 13.5264C422.28 12.8154 423.09 12.4622 424.106 12.4667C425.104 12.4667 425.879 12.7676 426.431 13.3691C426.982 13.9707 427.258 14.7842 427.258 15.8096V16.8965H422.842L422.828 16.9375C422.865 17.4251 423.028 17.8262 423.317 18.1406C423.606 18.4551 423.999 18.6123 424.496 18.6123C424.938 18.6123 425.305 18.5679 425.597 18.479C425.888 18.3901 426.207 18.25 426.554 18.0586L427.094 19.2891C426.793 19.5352 426.399 19.7391 425.911 19.9009C425.424 20.0627 424.881 20.1436 424.284 20.1436ZM424.106 14.0049C423.737 14.0049 423.446 14.1462 423.231 14.4287C423.017 14.7113 422.885 15.0827 422.835 15.543L422.855 15.5771H425.303V15.3994C425.303 14.9756 425.204 14.6372 425.005 14.3843C424.807 14.1313 424.507 14.0049 424.106 14.0049ZM432.419 17.9629C432.419 17.7441 432.313 17.555 432.101 17.3955C431.889 17.236 431.496 17.0947 430.922 16.9717C430.047 16.7939 429.387 16.5308 428.943 16.1821C428.499 15.8335 428.276 15.3584 428.276 14.7568C428.276 14.1188 428.544 13.5776 429.08 13.1333C429.615 12.689 430.332 12.4668 431.229 12.4668C432.173 12.4668 432.924 12.6878 433.482 13.1299C434.04 13.5719 434.308 14.1302 434.285 14.8047L434.271 14.8457H432.344C432.344 14.5495 432.249 14.3079 432.06 14.1211C431.871 13.9342 431.594 13.8408 431.229 13.8408C430.906 13.8408 430.652 13.9194 430.467 14.0767C430.283 14.2339 430.19 14.431 430.19 14.668C430.19 14.8958 430.287 15.0827 430.481 15.2285C430.675 15.3743 431.068 15.5042 431.66 15.6182C432.572 15.8005 433.248 16.0682 433.69 16.4214C434.132 16.7746 434.354 17.2611 434.354 17.8809C434.354 18.5462 434.069 19.0897 433.499 19.5112C432.929 19.9328 432.177 20.1436 431.243 20.1436C430.259 20.1436 429.481 19.894 428.909 19.395C428.337 18.896 428.064 18.3275 428.092 17.6895L428.105 17.6484H429.931C429.944 18.0449 430.074 18.332 430.32 18.5098C430.566 18.6875 430.888 18.7764 431.284 18.7764C431.653 18.7764 431.935 18.7035 432.128 18.5576C432.322 18.4118 432.419 18.2135 432.419 17.9629Z" fill="#4CABAA"/>
<path d="M485 54H391C388.791 54 387 55.7909 387 58V78C387 80.2091 388.791 82 391 82H485C487.209 82 489 80.2091 489 78V58C489 55.7909 487.209 54 485 54Z" fill="#E3FFFB" stroke="#BCF3EE" stroke-width="2"/>
<path d="M404.442 69.6162L404.456 69.6572C404.474 70.7282 404.147 71.577 403.475 72.2036C402.803 72.8302 401.87 73.1436 400.676 73.1436C399.477 73.1436 398.504 72.7585 397.757 71.9883C397.009 71.2181 396.636 70.2269 396.636 69.0146V67.0391C396.636 65.8314 397 64.8402 397.729 64.0654C398.459 63.2907 399.407 62.9033 400.573 62.9033C401.804 62.9033 402.765 63.2189 403.458 63.8501C404.151 64.4813 404.488 65.3415 404.47 66.4307L404.456 66.4717H402.515C402.515 65.8154 402.357 65.313 402.043 64.9644C401.729 64.6157 401.239 64.4414 400.573 64.4414C399.976 64.4414 399.502 64.6841 399.151 65.1694C398.8 65.6548 398.625 66.2734 398.625 67.0254V69.0146C398.625 69.7757 398.81 70.3989 399.179 70.8843C399.548 71.3696 400.047 71.6123 400.676 71.6123C401.3 71.6123 401.762 71.4448 402.06 71.1099C402.359 70.7749 402.508 70.277 402.508 69.6162H404.442ZM405.406 69.2334C405.406 68.1305 405.714 67.2271 406.329 66.5229C406.944 65.8188 407.797 65.4668 408.886 65.4668C409.979 65.4668 410.836 65.8177 411.456 66.5195C412.076 67.2214 412.386 68.126 412.386 69.2334V69.377C412.386 70.4889 412.077 71.3947 411.459 72.0942C410.842 72.7938 409.989 73.1436 408.899 73.1436C407.806 73.1436 406.95 72.7938 406.333 72.0942C405.715 71.3947 405.406 70.4889 405.406 69.377V69.2334ZM407.396 69.377C407.396 70.0514 407.514 70.5926 407.751 71.0005C407.988 71.4084 408.371 71.6123 408.899 71.6123C409.414 71.6123 409.792 71.4072 410.031 70.9971C410.27 70.5869 410.39 70.0469 410.39 69.377V69.2334C410.39 68.5771 410.269 68.0417 410.027 67.627C409.786 67.2122 409.405 67.0049 408.886 67.0049C408.371 67.0049 407.994 67.2134 407.754 67.6304C407.515 68.0474 407.396 68.5817 407.396 69.2334V69.377ZM413.309 69.3633C413.309 68.1966 413.56 67.2555 414.064 66.54C414.568 65.8245 415.277 65.4668 416.193 65.4668C416.563 65.4668 416.895 65.5465 417.191 65.7061C417.488 65.8656 417.747 66.0934 417.971 66.3896V62.3359H419.974V73H418.258L418.094 72.0977C417.861 72.4395 417.587 72.6992 417.27 72.877C416.953 73.0547 416.59 73.1436 416.18 73.1436C415.273 73.1436 414.568 72.8109 414.064 72.1455C413.56 71.4801 413.309 70.6006 413.309 69.5068V69.3633ZM415.298 69.5068C415.298 70.154 415.407 70.6632 415.626 71.0347C415.845 71.4061 416.2 71.5918 416.692 71.5918C416.979 71.5918 417.23 71.5337 417.444 71.4175C417.659 71.3013 417.834 71.1315 417.971 70.9082V67.7568C417.834 67.5244 417.66 67.3433 417.448 67.2134C417.236 67.0835 416.989 67.0186 416.706 67.0186C416.218 67.0186 415.862 67.235 415.636 67.668C415.411 68.1009 415.298 68.666 415.298 69.3633V69.5068ZM424.793 73.1436C423.727 73.1436 422.874 72.8018 422.236 72.1182C421.598 71.4346 421.279 70.5664 421.279 69.5137V69.2402C421.279 68.1419 421.581 67.2373 422.185 66.5264C422.789 65.8154 423.599 65.4622 424.615 65.4667C425.613 65.4667 426.388 65.7676 426.939 66.3691C427.491 66.9707 427.767 67.7842 427.767 68.8096V69.8965H423.351L423.337 69.9375C423.373 70.4251 423.536 70.8262 423.826 71.1406C424.115 71.4551 424.508 71.6123 425.005 71.6123C425.447 71.6123 425.814 71.5679 426.105 71.479C426.397 71.3901 426.716 71.25 427.062 71.0586L427.603 72.2891C427.302 72.5352 426.908 72.7391 426.42 72.9009C425.932 73.0627 425.39 73.1436 424.793 73.1436ZM424.615 67.0049C424.246 67.0049 423.954 67.1462 423.74 67.4287C423.526 67.7113 423.394 68.0827 423.344 68.543L423.364 68.5771H425.812V68.3994C425.812 67.9756 425.712 67.6372 425.514 67.3843C425.316 67.1313 425.016 67.0049 424.615 67.0049ZM437.952 70.4023C437.952 70.0195 437.817 69.7119 437.545 69.4795C437.274 69.2471 436.799 69.0283 436.12 68.8232C434.935 68.4814 434.04 68.0758 433.434 67.6064C432.827 67.137 432.524 66.4945 432.524 65.6787C432.524 64.863 432.872 64.1965 433.567 63.6792C434.262 63.1619 435.149 62.9033 436.229 62.9033C437.323 62.9033 438.214 63.1938 438.902 63.7749C439.59 64.356 439.923 65.0726 439.9 65.9248L439.887 65.9658H437.952C437.952 65.5055 437.798 65.133 437.491 64.8481C437.183 64.5633 436.751 64.4209 436.195 64.4209C435.662 64.4209 435.25 64.5394 434.958 64.7764C434.666 65.0133 434.521 65.3164 434.521 65.6855C434.521 66.0228 434.677 66.2996 434.989 66.5161C435.301 66.7326 435.84 66.9616 436.605 67.2031C437.704 67.5085 438.535 67.9118 439.101 68.4131C439.666 68.9144 439.948 69.5729 439.948 70.3887C439.948 71.2409 439.612 71.9131 438.94 72.4053C438.268 72.8975 437.38 73.1436 436.277 73.1436C435.193 73.1436 434.247 72.8644 433.44 72.3062C432.634 71.7479 432.242 70.9652 432.265 69.958L432.278 69.917H434.22C434.22 70.5094 434.401 70.9435 434.763 71.2192C435.125 71.495 435.63 71.6328 436.277 71.6328C436.82 71.6328 437.234 71.5212 437.521 71.2979C437.809 71.0745 437.952 70.776 437.952 70.4023ZM443.394 73H441.397V65.6035H443.394V73ZM443.394 63.833H441.397V62.3359H443.394V63.833ZM444.727 69.3633C444.727 68.1966 444.981 67.2555 445.489 66.54C445.997 65.8245 446.709 65.4668 447.625 65.4668C448.04 65.4668 448.404 65.5602 448.719 65.7471C449.033 65.9339 449.302 66.2005 449.525 66.5469L449.683 65.6035H451.405V72.9658C451.405 73.9274 451.09 74.6714 450.458 75.1978C449.827 75.7241 448.949 75.9873 447.823 75.9873C447.45 75.9873 447.053 75.936 446.634 75.8335C446.215 75.731 445.827 75.5908 445.472 75.4131L445.841 73.9229C446.146 74.0687 446.457 74.1792 446.774 74.2544C447.091 74.3296 447.436 74.3672 447.81 74.3672C448.356 74.3672 448.759 74.2533 449.016 74.0254C449.274 73.7975 449.402 73.4421 449.402 72.959V72.2891C449.184 72.5671 448.926 72.779 448.63 72.9248C448.334 73.0706 447.994 73.1436 447.611 73.1436C446.704 73.1436 445.997 72.8097 445.489 72.1421C444.981 71.4744 444.727 70.596 444.727 69.5068V69.3633ZM446.723 69.5068C446.723 70.154 446.832 70.6632 447.051 71.0347C447.27 71.4061 447.625 71.5918 448.117 71.5918C448.423 71.5918 448.681 71.536 448.893 71.4243C449.105 71.3127 449.275 71.1497 449.402 70.9355V67.7227C449.275 67.4993 449.105 67.3262 448.893 67.2031C448.681 67.0801 448.427 67.0186 448.131 67.0186C447.643 67.0186 447.287 67.235 447.061 67.668C446.835 68.1009 446.723 68.666 446.723 69.3633V69.5068ZM454.762 65.6035L454.851 66.6631C455.097 66.2848 455.4 65.9909 455.76 65.7812C456.12 65.5716 456.523 65.4668 456.97 65.4668C457.717 65.4668 458.3 65.7015 458.72 66.1709C459.139 66.6403 459.349 67.3763 459.349 68.3789V73H457.346V68.3857C457.346 67.889 457.245 67.5369 457.045 67.3296C456.844 67.1222 456.541 67.0186 456.136 67.0186C455.871 67.0186 455.634 67.0721 455.425 67.1792C455.215 67.2863 455.04 67.4378 454.898 67.6338V73H452.902V65.6035H454.762ZM462.938 73H460.941V65.6035H462.938V73ZM462.938 63.833H460.941V62.3359H462.938V63.833ZM466.403 65.6035L466.492 66.6631C466.738 66.2848 467.041 65.9909 467.401 65.7812C467.761 65.5716 468.165 65.4668 468.611 65.4668C469.359 65.4668 469.942 65.7015 470.361 66.1709C470.781 66.6403 470.99 67.3763 470.99 68.3789V73H468.987V68.3857C468.987 67.889 468.887 67.5369 468.687 67.3296C468.486 67.1222 468.183 67.0186 467.777 67.0186C467.513 67.0186 467.276 67.0721 467.066 67.1792C466.857 67.2863 466.681 67.4378 466.54 67.6338V73H464.544V65.6035H466.403ZM472.173 69.3633C472.173 68.1966 472.427 67.2555 472.935 66.54C473.443 65.8245 474.155 65.4668 475.071 65.4668C475.486 65.4668 475.851 65.5602 476.165 65.7471C476.479 65.9339 476.748 66.2005 476.972 66.5469L477.129 65.6035H478.852V72.9658C478.852 73.9274 478.536 74.6714 477.905 75.1978C477.274 75.7241 476.395 75.9873 475.27 75.9873C474.896 75.9873 474.499 75.936 474.08 75.8335C473.661 75.731 473.273 75.5908 472.918 75.4131L473.287 73.9229C473.592 74.0687 473.903 74.1792 474.22 74.2544C474.537 74.3296 474.882 74.3672 475.256 74.3672C475.803 74.3672 476.205 74.2533 476.462 74.0254C476.72 73.7975 476.849 73.4421 476.849 72.959V72.2891C476.63 72.5671 476.372 72.779 476.076 72.9248C475.78 73.0706 475.44 73.1436 475.058 73.1436C474.151 73.1436 473.443 72.8097 472.935 72.1421C472.427 71.4744 472.173 70.596 472.173 69.5068V69.3633ZM474.169 69.5068C474.169 70.154 474.278 70.6632 474.497 71.0347C474.716 71.4061 475.071 71.5918 475.563 71.5918C475.869 71.5918 476.127 71.536 476.339 71.4243C476.551 71.3127 476.721 71.1497 476.849 70.9355V67.7227C476.721 67.4993 476.551 67.3262 476.339 67.2031C476.127 67.0801 475.873 67.0186 475.577 67.0186C475.09 67.0186 474.733 67.235 474.507 67.668C474.282 68.1009 474.169 68.666 474.169 69.3633V69.5068Z" fill="#4CABAA"/>
<path d="M529 108H416C413.791 108 412 109.791 412 112V132C412 134.209 413.791 136 416 136H529C531.209 136 533 134.209 533 132V112C533 109.791 531.209 108 529 108Z" fill="#E3FFFB" stroke="#BCF3EE" stroke-width="2"/>
<path d="M429.976 127H427.986L423.967 120.198L423.926 120.205V127H421.93V117.047H423.926L427.945 123.842L427.986 123.835V117.047H429.976V127ZM436.019 127C435.946 126.831 435.883 126.654 435.831 126.467C435.778 126.28 435.741 126.089 435.718 125.893C435.513 126.253 435.243 126.551 434.908 126.788C434.573 127.025 434.173 127.144 433.708 127.144C432.933 127.144 432.336 126.944 431.917 126.545C431.498 126.147 431.288 125.603 431.288 124.915C431.288 124.19 431.567 123.629 432.125 123.23C432.684 122.831 433.498 122.632 434.569 122.632H435.684V122.044C435.684 121.688 435.59 121.413 435.403 121.217C435.216 121.021 434.941 120.923 434.576 120.923C434.253 120.923 434.003 121.001 433.828 121.159C433.652 121.316 433.564 121.534 433.564 121.812L431.637 121.805L431.63 121.764C431.598 121.139 431.869 120.6 432.443 120.147C433.018 119.694 433.772 119.467 434.706 119.467C435.59 119.467 436.308 119.691 436.859 120.14C437.411 120.589 437.687 121.228 437.687 122.058V125.113C437.687 125.46 437.713 125.785 437.765 126.091C437.818 126.396 437.901 126.699 438.015 127H436.019ZM434.193 125.667C434.544 125.667 434.856 125.58 435.13 125.407C435.403 125.234 435.588 125.034 435.684 124.806V123.76H434.569C434.146 123.76 433.824 123.866 433.605 124.078C433.387 124.29 433.277 124.546 433.277 124.847C433.277 125.093 433.359 125.291 433.523 125.441C433.688 125.592 433.911 125.667 434.193 125.667ZM441.569 117.792V119.604H442.813V121.005H441.569V124.771C441.569 125.059 441.629 125.264 441.747 125.387C441.866 125.51 442.025 125.571 442.226 125.571C442.33 125.571 442.42 125.566 442.496 125.554C442.571 125.543 442.659 125.523 442.759 125.496L442.93 126.938C442.729 127.007 442.533 127.058 442.342 127.092C442.15 127.126 441.943 127.144 441.72 127.144C441.032 127.144 440.502 126.954 440.13 126.576C439.759 126.198 439.573 125.599 439.573 124.778V121.005H438.493V119.604H439.573V117.792H441.569ZM446.184 127H444.188V119.604H446.184V127ZM446.184 117.833H444.188V116.336H446.184V117.833ZM450.497 124.245L450.627 124.929H450.668L450.805 124.245L452.021 119.604H454.106L451.591 127H449.684L447.168 119.604H449.253L450.497 124.245ZM458.249 127.144C457.183 127.144 456.33 126.802 455.692 126.118C455.054 125.435 454.735 124.566 454.735 123.514V123.24C454.735 122.142 455.037 121.237 455.641 120.526C456.245 119.815 457.055 119.462 458.071 119.467C459.069 119.467 459.844 119.768 460.396 120.369C460.947 120.971 461.223 121.784 461.223 122.81V123.896H456.807L456.793 123.938C456.829 124.425 456.992 124.826 457.282 125.141C457.571 125.455 457.964 125.612 458.461 125.612C458.903 125.612 459.27 125.568 459.562 125.479C459.853 125.39 460.172 125.25 460.519 125.059L461.059 126.289C460.758 126.535 460.364 126.739 459.876 126.901C459.388 127.063 458.846 127.144 458.249 127.144ZM458.071 121.005C457.702 121.005 457.41 121.146 457.196 121.429C456.982 121.711 456.85 122.083 456.8 122.543L456.82 122.577H459.268V122.399C459.268 121.976 459.168 121.637 458.97 121.384C458.772 121.131 458.472 121.005 458.071 121.005ZM468.154 127H466.158V117.047H468.154V127ZM471.805 119.604L471.894 120.663C472.14 120.285 472.443 119.991 472.803 119.781C473.163 119.572 473.566 119.467 474.013 119.467C474.76 119.467 475.343 119.701 475.763 120.171C476.182 120.64 476.392 121.376 476.392 122.379V127H474.389V122.386C474.389 121.889 474.288 121.537 474.088 121.33C473.887 121.122 473.584 121.019 473.179 121.019C472.914 121.019 472.677 121.072 472.468 121.179C472.258 121.286 472.083 121.438 471.941 121.634V127H469.945V119.604H471.805ZM481.881 124.963C481.881 124.744 481.775 124.555 481.563 124.396C481.351 124.236 480.958 124.095 480.384 123.972C479.509 123.794 478.849 123.531 478.405 123.182C477.96 122.833 477.738 122.358 477.738 121.757C477.738 121.119 478.006 120.578 478.542 120.133C479.077 119.689 479.794 119.467 480.691 119.467C481.635 119.467 482.386 119.688 482.944 120.13C483.502 120.572 483.77 121.13 483.747 121.805L483.733 121.846H481.806C481.806 121.549 481.711 121.308 481.522 121.121C481.333 120.934 481.056 120.841 480.691 120.841C480.368 120.841 480.114 120.919 479.929 121.077C479.745 121.234 479.652 121.431 479.652 121.668C479.652 121.896 479.749 122.083 479.943 122.229C480.137 122.374 480.53 122.504 481.122 122.618C482.034 122.8 482.71 123.068 483.152 123.421C483.594 123.775 483.815 124.261 483.815 124.881C483.815 125.546 483.531 126.09 482.961 126.511C482.391 126.933 481.639 127.144 480.705 127.144C479.721 127.144 478.943 126.894 478.371 126.395C477.799 125.896 477.526 125.327 477.554 124.689L477.567 124.648H479.393C479.406 125.045 479.536 125.332 479.782 125.51C480.028 125.688 480.35 125.776 480.746 125.776C481.115 125.776 481.397 125.703 481.59 125.558C481.784 125.412 481.881 125.214 481.881 124.963ZM487.473 117.792V119.604H488.717V121.005H487.473V124.771C487.473 125.059 487.532 125.264 487.65 125.387C487.769 125.51 487.928 125.571 488.129 125.571C488.234 125.571 488.324 125.566 488.399 125.554C488.474 125.543 488.562 125.523 488.662 125.496L488.833 126.938C488.632 127.007 488.437 127.058 488.245 127.092C488.054 127.126 487.846 127.144 487.623 127.144C486.935 127.144 486.405 126.954 486.034 126.576C485.662 126.198 485.477 125.599 485.477 124.778V121.005H484.396V119.604H485.477V117.792H487.473ZM494.329 127C494.256 126.831 494.194 126.654 494.141 126.467C494.089 126.28 494.051 126.089 494.028 125.893C493.823 126.253 493.553 126.551 493.218 126.788C492.883 127.025 492.483 127.144 492.019 127.144C491.244 127.144 490.647 126.944 490.228 126.545C489.808 126.147 489.599 125.603 489.599 124.915C489.599 124.19 489.878 123.629 490.436 123.23C490.994 122.831 491.809 122.632 492.88 122.632H493.994V122.044C493.994 121.688 493.901 121.413 493.714 121.217C493.527 121.021 493.251 120.923 492.887 120.923C492.563 120.923 492.314 121.001 492.138 121.159C491.963 121.316 491.875 121.534 491.875 121.812L489.947 121.805L489.94 121.764C489.909 121.139 490.18 120.6 490.754 120.147C491.328 119.694 492.082 119.467 493.017 119.467C493.901 119.467 494.618 119.691 495.17 120.14C495.721 120.589 495.997 121.228 495.997 122.058V125.113C495.997 125.46 496.023 125.785 496.076 126.091C496.128 126.396 496.211 126.699 496.325 127H494.329ZM492.504 125.667C492.855 125.667 493.167 125.58 493.44 125.407C493.714 125.234 493.898 125.034 493.994 124.806V123.76H492.88C492.456 123.76 492.135 123.866 491.916 124.078C491.697 124.29 491.588 124.546 491.588 124.847C491.588 125.093 491.67 125.291 491.834 125.441C491.998 125.592 492.221 125.667 492.504 125.667ZM499.606 127H497.61V116.336H499.606V127ZM503.346 127H501.35V116.336H503.346V127ZM508.261 127.144C507.194 127.144 506.342 126.802 505.704 126.118C505.066 125.435 504.747 124.566 504.747 123.514V123.24C504.747 122.142 505.049 121.237 505.653 120.526C506.257 119.815 507.067 119.462 508.083 119.467C509.081 119.467 509.856 119.768 510.407 120.369C510.959 120.971 511.234 121.784 511.234 122.81V123.896H506.818L506.805 123.938C506.841 124.425 507.004 124.826 507.293 125.141C507.583 125.455 507.976 125.612 508.473 125.612C508.915 125.612 509.282 125.568 509.573 125.479C509.865 125.39 510.184 125.25 510.53 125.059L511.07 126.289C510.77 126.535 510.375 126.739 509.888 126.901C509.4 127.063 508.858 127.144 508.261 127.144ZM508.083 121.005C507.714 121.005 507.422 121.146 507.208 121.429C506.994 121.711 506.862 122.083 506.812 122.543L506.832 122.577H509.279V122.399C509.279 121.976 509.18 121.637 508.982 121.384C508.784 121.131 508.484 121.005 508.083 121.005ZM516.286 121.319L515.555 121.299C515.258 121.299 515.015 121.36 514.823 121.483C514.632 121.606 514.486 121.78 514.386 122.003V127H512.396V119.604H514.249L514.338 120.697C514.511 120.31 514.736 120.008 515.011 119.792C515.287 119.575 515.605 119.467 515.965 119.467C516.065 119.467 516.157 119.475 516.242 119.491C516.326 119.507 516.411 119.526 516.498 119.549L516.286 121.319ZM521.297 124.963C521.297 124.744 521.191 124.555 520.979 124.396C520.767 124.236 520.374 124.095 519.8 123.972C518.925 123.794 518.265 123.531 517.821 123.182C517.376 122.833 517.154 122.358 517.154 121.757C517.154 121.119 517.422 120.578 517.958 120.133C518.493 119.689 519.21 119.467 520.107 119.467C521.051 119.467 521.802 119.688 522.36 120.13C522.918 120.572 523.186 121.13 523.163 121.805L523.149 121.846H521.222C521.222 121.549 521.127 121.308 520.938 121.121C520.749 120.934 520.472 120.841 520.107 120.841C519.784 120.841 519.53 120.919 519.345 121.077C519.161 121.234 519.068 121.431 519.068 121.668C519.068 121.896 519.165 122.083 519.359 122.229C519.553 122.374 519.946 122.504 520.538 122.618C521.45 122.8 522.126 123.068 522.568 123.421C523.01 123.775 523.231 124.261 523.231 124.881C523.231 125.546 522.947 126.09 522.377 126.511C521.807 126.933 521.055 127.144 520.121 127.144C519.137 127.144 518.359 126.894 517.787 126.395C517.215 125.896 516.942 125.327 516.97 124.689L516.983 124.648H518.809C518.822 125.045 518.952 125.332 519.198 125.51C519.444 125.688 519.766 125.776 520.162 125.776C520.531 125.776 520.813 125.703 521.006 125.558C521.2 125.412 521.297 125.214 521.297 124.963Z" fill="#4CABAA"/>
<path d="M540 165H428C425.791 165 424 166.791 424 169V189C424 191.209 425.791 193 428 193H540C542.209 193 544 191.209 544 189V169C544 166.791 542.209 165 540 165Z" fill="#E3FFFB" stroke="#BCF3EE" stroke-width="2"/>
<path d="M441.442 180.616L441.456 180.657C441.474 181.728 441.147 182.577 440.475 183.204C439.803 183.83 438.87 184.144 437.676 184.144C436.477 184.144 435.504 183.758 434.757 182.988C434.009 182.218 433.636 181.227 433.636 180.015V178.039C433.636 176.831 434 175.84 434.729 175.065C435.459 174.291 436.407 173.903 437.573 173.903C438.804 173.903 439.765 174.219 440.458 174.85C441.151 175.481 441.488 176.341 441.47 177.431L441.456 177.472H439.515C439.515 176.815 439.357 176.313 439.043 175.964C438.729 175.616 438.239 175.441 437.573 175.441C436.976 175.441 436.502 175.684 436.151 176.169C435.8 176.655 435.625 177.273 435.625 178.025V180.015C435.625 180.776 435.81 181.399 436.179 181.884C436.548 182.37 437.047 182.612 437.676 182.612C438.3 182.612 438.762 182.445 439.06 182.11C439.359 181.775 439.508 181.277 439.508 180.616H441.442ZM446.604 178.319L445.872 178.299C445.576 178.299 445.332 178.36 445.141 178.483C444.949 178.606 444.803 178.78 444.703 179.003V184H442.714V176.604H444.566L444.655 177.697C444.828 177.31 445.053 177.008 445.329 176.792C445.604 176.575 445.922 176.467 446.282 176.467C446.382 176.467 446.475 176.475 446.559 176.491C446.643 176.507 446.729 176.526 446.815 176.549L446.604 178.319ZM451.956 184C451.883 183.831 451.82 183.654 451.768 183.467C451.716 183.28 451.678 183.089 451.655 182.893C451.45 183.253 451.18 183.551 450.845 183.788C450.51 184.025 450.11 184.144 449.646 184.144C448.871 184.144 448.274 183.944 447.854 183.545C447.435 183.147 447.226 182.603 447.226 181.915C447.226 181.19 447.505 180.629 448.063 180.23C448.621 179.831 449.436 179.632 450.507 179.632H451.621V179.044C451.621 178.688 451.528 178.413 451.341 178.217C451.154 178.021 450.878 177.923 450.514 177.923C450.19 177.923 449.941 178.001 449.765 178.159C449.59 178.316 449.502 178.534 449.502 178.812L447.574 178.805L447.567 178.764C447.535 178.139 447.807 177.6 448.381 177.147C448.955 176.694 449.709 176.467 450.644 176.467C451.528 176.467 452.245 176.691 452.797 177.14C453.348 177.589 453.624 178.228 453.624 179.058V182.113C453.624 182.46 453.65 182.785 453.703 183.091C453.755 183.396 453.838 183.699 453.952 184H451.956ZM450.131 182.667C450.482 182.667 450.794 182.58 451.067 182.407C451.341 182.234 451.525 182.034 451.621 181.806V180.76H450.507C450.083 180.76 449.762 180.866 449.543 181.078C449.324 181.29 449.215 181.546 449.215 181.847C449.215 182.093 449.297 182.291 449.461 182.441C449.625 182.592 449.848 182.667 450.131 182.667ZM459.134 181.963C459.134 181.744 459.028 181.555 458.816 181.396C458.604 181.236 458.211 181.095 457.637 180.972C456.762 180.794 456.102 180.531 455.658 180.182C455.213 179.833 454.991 179.358 454.991 178.757C454.991 178.119 455.259 177.578 455.794 177.133C456.33 176.689 457.047 176.467 457.944 176.467C458.888 176.467 459.639 176.688 460.197 177.13C460.755 177.572 461.023 178.13 461 178.805L460.986 178.846H459.059C459.059 178.549 458.964 178.308 458.775 178.121C458.586 177.934 458.309 177.841 457.944 177.841C457.621 177.841 457.367 177.919 457.182 178.077C456.998 178.234 456.905 178.431 456.905 178.668C456.905 178.896 457.002 179.083 457.196 179.229C457.389 179.374 457.783 179.504 458.375 179.618C459.286 179.8 459.963 180.068 460.405 180.421C460.847 180.775 461.068 181.261 461.068 181.881C461.068 182.546 460.784 183.09 460.214 183.511C459.644 183.933 458.892 184.144 457.958 184.144C456.974 184.144 456.195 183.894 455.624 183.395C455.052 182.896 454.779 182.327 454.807 181.689L454.82 181.648H456.646C456.659 182.045 456.789 182.332 457.035 182.51C457.281 182.688 457.603 182.776 457.999 182.776C458.368 182.776 458.65 182.703 458.843 182.558C459.037 182.412 459.134 182.214 459.134 181.963ZM464.302 177.54C464.534 177.203 464.819 176.94 465.156 176.75C465.493 176.561 465.867 176.467 466.277 176.467C467.048 176.467 467.653 176.723 468.092 177.236C468.532 177.749 468.752 178.54 468.752 179.611V184H466.756V179.598C466.756 179.023 466.654 178.617 466.452 178.377C466.249 178.138 465.947 178.019 465.546 178.019C465.272 178.019 465.031 178.068 464.821 178.166C464.612 178.264 464.438 178.401 464.302 178.579V184H462.306V173.336H464.302V177.54ZM475.902 180.021V184H473.906V174.047H477.659C478.794 174.047 479.681 174.305 480.322 174.823C480.962 175.34 481.282 176.061 481.282 176.986C481.282 177.501 481.148 177.943 480.879 178.312C480.61 178.682 480.216 178.98 479.696 179.208C480.284 179.381 480.707 179.671 480.964 180.076C481.222 180.482 481.351 180.983 481.351 181.58V182.312C481.351 182.59 481.388 182.88 481.463 183.183C481.539 183.486 481.667 183.711 481.85 183.856V184H479.792C479.61 183.854 479.491 183.61 479.437 183.269C479.382 182.927 479.354 182.603 479.354 182.298V181.594C479.354 181.097 479.219 180.711 478.948 180.435C478.677 180.159 478.295 180.021 477.803 180.021H475.902ZM475.902 178.483H477.625C478.186 178.483 478.604 178.365 478.879 178.128C479.155 177.891 479.293 177.54 479.293 177.075C479.293 176.619 479.155 176.257 478.879 175.988C478.604 175.719 478.197 175.585 477.659 175.585H475.902V178.483ZM486.272 184.144C485.206 184.144 484.354 183.802 483.716 183.118C483.078 182.435 482.759 181.566 482.759 180.514V180.24C482.759 179.142 483.061 178.237 483.665 177.526C484.268 176.815 485.078 176.462 486.095 176.467C487.093 176.467 487.868 176.768 488.419 177.369C488.97 177.971 489.246 178.784 489.246 179.81V180.896H484.83L484.816 180.938C484.853 181.425 485.016 181.826 485.305 182.141C485.595 182.455 485.988 182.612 486.484 182.612C486.926 182.612 487.293 182.568 487.585 182.479C487.877 182.39 488.196 182.25 488.542 182.059L489.082 183.289C488.781 183.535 488.387 183.739 487.899 183.901C487.412 184.063 486.869 184.144 486.272 184.144ZM486.095 178.005C485.726 178.005 485.434 178.146 485.22 178.429C485.006 178.711 484.873 179.083 484.823 179.543L484.844 179.577H487.291V179.399C487.291 178.976 487.192 178.637 486.994 178.384C486.795 178.131 486.496 178.005 486.095 178.005ZM497.08 180.507C497.08 181.601 496.827 182.48 496.321 183.146C495.815 183.811 495.109 184.144 494.202 184.144C493.815 184.144 493.471 184.072 493.17 183.928C492.869 183.785 492.612 183.574 492.397 183.296V186.844H490.408V176.604H492.206L492.322 177.479C492.541 177.155 492.804 176.905 493.112 176.73C493.419 176.555 493.778 176.467 494.188 176.467C495.104 176.467 495.815 176.825 496.321 177.54C496.827 178.256 497.08 179.197 497.08 180.363V180.507ZM495.084 180.363C495.084 179.666 494.968 179.101 494.735 178.668C494.503 178.235 494.147 178.019 493.669 178.019C493.368 178.019 493.112 178.08 492.9 178.203C492.688 178.326 492.521 178.502 492.397 178.729V181.97C492.521 182.179 492.688 182.339 492.9 182.448C493.112 182.558 493.373 182.612 493.683 182.612C494.166 182.612 494.52 182.423 494.746 182.045C494.971 181.667 495.084 181.154 495.084 180.507V180.363ZM498.003 180.233C498.003 179.131 498.311 178.227 498.926 177.523C499.541 176.819 500.393 176.467 501.482 176.467C502.576 176.467 503.433 176.818 504.053 177.52C504.673 178.221 504.982 179.126 504.982 180.233V180.377C504.982 181.489 504.674 182.395 504.056 183.094C503.439 183.794 502.585 184.144 501.496 184.144C500.402 184.144 499.547 183.794 498.929 183.094C498.312 182.395 498.003 181.489 498.003 180.377V180.233ZM499.992 180.377C499.992 181.051 500.111 181.593 500.348 182C500.585 182.408 500.967 182.612 501.496 182.612C502.011 182.612 502.388 182.407 502.627 181.997C502.867 181.587 502.986 181.047 502.986 180.377V180.233C502.986 179.577 502.866 179.042 502.624 178.627C502.382 178.212 502.002 178.005 501.482 178.005C500.967 178.005 500.59 178.213 500.351 178.63C500.112 179.047 499.992 179.582 499.992 180.233V180.377ZM510.103 178.319L509.371 178.299C509.075 178.299 508.831 178.36 508.64 178.483C508.448 178.606 508.302 178.78 508.202 179.003V184H506.213V176.604H508.065L508.154 177.697C508.327 177.31 508.552 177.008 508.828 176.792C509.103 176.575 509.421 176.467 509.781 176.467C509.882 176.467 509.974 176.475 510.058 176.491C510.142 176.507 510.228 176.526 510.314 176.549L510.103 178.319ZM513.486 174.792V176.604H514.73V178.005H513.486V181.771C513.486 182.059 513.546 182.264 513.664 182.387C513.783 182.51 513.942 182.571 514.143 182.571C514.247 182.571 514.337 182.566 514.413 182.554C514.488 182.543 514.576 182.523 514.676 182.496L514.847 183.938C514.646 184.007 514.45 184.058 514.259 184.092C514.067 184.126 513.86 184.144 513.637 184.144C512.949 184.144 512.419 183.954 512.047 183.576C511.676 183.198 511.49 182.599 511.49 181.778V178.005H510.41V176.604H511.49V174.792H513.486ZM518.101 184H516.104V176.604H518.101V184ZM518.101 174.833H516.104V173.336H518.101V174.833ZM521.566 176.604L521.655 177.663C521.901 177.285 522.204 176.991 522.564 176.781C522.924 176.572 523.328 176.467 523.774 176.467C524.522 176.467 525.105 176.701 525.524 177.171C525.944 177.64 526.153 178.376 526.153 179.379V184H524.15V179.386C524.15 178.889 524.05 178.537 523.85 178.33C523.649 178.122 523.346 178.019 522.94 178.019C522.676 178.019 522.439 178.072 522.229 178.179C522.02 178.286 521.844 178.438 521.703 178.634V184H519.707V176.604H521.566ZM527.336 180.363C527.336 179.197 527.59 178.256 528.098 177.54C528.606 176.825 529.318 176.467 530.234 176.467C530.649 176.467 531.014 176.56 531.328 176.747C531.643 176.934 531.911 177.201 532.135 177.547L532.292 176.604H534.015V183.966C534.015 184.927 533.699 185.671 533.068 186.198C532.437 186.724 531.558 186.987 530.433 186.987C530.059 186.987 529.662 186.936 529.243 186.833C528.824 186.731 528.437 186.591 528.081 186.413L528.45 184.923C528.756 185.069 529.067 185.179 529.383 185.254C529.7 185.33 530.045 185.367 530.419 185.367C530.966 185.367 531.368 185.253 531.625 185.025C531.883 184.798 532.012 184.442 532.012 183.959V183.289C531.793 183.567 531.535 183.779 531.239 183.925C530.943 184.071 530.604 184.144 530.221 184.144C529.314 184.144 528.606 183.81 528.098 183.142C527.59 182.474 527.336 181.596 527.336 180.507V180.363ZM529.332 180.507C529.332 181.154 529.441 181.663 529.66 182.035C529.879 182.406 530.234 182.592 530.727 182.592C531.032 182.592 531.291 182.536 531.502 182.424C531.714 182.313 531.884 182.15 532.012 181.936V178.723C531.884 178.499 531.714 178.326 531.502 178.203C531.291 178.08 531.036 178.019 530.74 178.019C530.253 178.019 529.896 178.235 529.67 178.668C529.445 179.101 529.332 179.666 529.332 180.363V180.507Z" fill="#4CABAA"/>
<path d="M591 222H418C415.791 222 414 223.791 414 226V246C414 248.209 415.791 250 418 250H591C593.209 250 595 248.209 595 246V226C595 223.791 593.209 222 591 222Z" fill="#E3FFFB" stroke="#BCF3EE" stroke-width="2"/>
<path d="M426.049 241H424.053V231.047H426.049V241ZM429.699 233.604L429.788 234.663C430.034 234.285 430.337 233.991 430.697 233.781C431.057 233.572 431.461 233.467 431.907 233.467C432.655 233.467 433.238 233.701 433.657 234.171C434.076 234.64 434.286 235.376 434.286 236.379V241H432.283V236.386C432.283 235.889 432.183 235.537 431.982 235.33C431.782 235.122 431.479 235.019 431.073 235.019C430.809 235.019 430.572 235.072 430.362 235.179C430.153 235.286 429.977 235.438 429.836 235.634V241H427.84V233.604H429.699ZM439.775 238.963C439.775 238.744 439.669 238.555 439.458 238.396C439.246 238.236 438.853 238.095 438.278 237.972C437.403 237.794 436.744 237.531 436.299 237.182C435.855 236.833 435.633 236.358 435.633 235.757C435.633 235.119 435.901 234.578 436.436 234.133C436.972 233.689 437.688 233.467 438.586 233.467C439.529 233.467 440.28 233.688 440.838 234.13C441.397 234.572 441.664 235.13 441.642 235.805L441.628 235.846H439.7C439.7 235.549 439.606 235.308 439.417 235.121C439.227 234.934 438.951 234.841 438.586 234.841C438.262 234.841 438.008 234.919 437.824 235.077C437.639 235.234 437.547 235.431 437.547 235.668C437.547 235.896 437.644 236.083 437.837 236.229C438.031 236.374 438.424 236.504 439.017 236.618C439.928 236.8 440.605 237.068 441.047 237.421C441.489 237.775 441.71 238.261 441.71 238.881C441.71 239.546 441.425 240.09 440.855 240.511C440.286 240.933 439.534 241.144 438.6 241.144C437.615 241.144 436.837 240.894 436.265 240.395C435.693 239.896 435.421 239.327 435.448 238.689L435.462 238.648H437.287C437.301 239.045 437.431 239.332 437.677 239.51C437.923 239.688 438.244 239.776 438.641 239.776C439.01 239.776 439.291 239.703 439.485 239.558C439.679 239.412 439.775 239.214 439.775 238.963ZM445.367 231.792V233.604H446.611V235.005H445.367V238.771C445.367 239.059 445.426 239.264 445.545 239.387C445.663 239.51 445.823 239.571 446.023 239.571C446.128 239.571 446.218 239.566 446.293 239.554C446.369 239.543 446.456 239.523 446.557 239.496L446.728 240.938C446.527 241.007 446.331 241.058 446.14 241.092C445.948 241.126 445.741 241.144 445.518 241.144C444.829 241.144 444.3 240.954 443.928 240.576C443.557 240.198 443.371 239.599 443.371 238.778V235.005H442.291V233.604H443.371V231.792H445.367ZM452.224 241C452.151 240.831 452.088 240.654 452.036 240.467C451.983 240.28 451.946 240.089 451.923 239.893C451.718 240.253 451.448 240.551 451.113 240.788C450.778 241.025 450.378 241.144 449.913 241.144C449.138 241.144 448.541 240.944 448.122 240.545C447.703 240.147 447.493 239.603 447.493 238.915C447.493 238.19 447.772 237.629 448.331 237.23C448.889 236.831 449.703 236.632 450.774 236.632H451.889V236.044C451.889 235.688 451.795 235.413 451.608 235.217C451.422 235.021 451.146 234.923 450.781 234.923C450.458 234.923 450.208 235.001 450.033 235.159C449.857 235.316 449.77 235.534 449.77 235.812L447.842 235.805L447.835 235.764C447.803 235.139 448.074 234.6 448.648 234.147C449.223 233.694 449.977 233.467 450.911 233.467C451.795 233.467 452.513 233.691 453.064 234.14C453.616 234.589 453.892 235.228 453.892 236.058V239.113C453.892 239.46 453.918 239.785 453.97 240.091C454.023 240.396 454.106 240.699 454.22 241H452.224ZM450.398 239.667C450.749 239.667 451.062 239.58 451.335 239.407C451.608 239.234 451.793 239.034 451.889 238.806V237.76H450.774C450.351 237.76 450.029 237.866 449.811 238.078C449.592 238.29 449.482 238.546 449.482 238.847C449.482 239.093 449.564 239.291 449.729 239.441C449.893 239.592 450.116 239.667 450.398 239.667ZM457.501 241H455.505V230.336H457.501V241ZM461.24 241H459.244V230.336H461.24V241ZM463.961 241.854H462.02L465.67 231.047H467.611L463.961 241.854ZM476.56 231.047V237.65C476.56 238.767 476.19 239.628 475.452 240.234C474.714 240.84 473.748 241.144 472.554 241.144C471.364 241.144 470.404 240.84 469.672 240.234C468.941 239.628 468.575 238.767 468.575 237.65V231.047H470.578V237.65C470.578 238.307 470.754 238.798 471.104 239.124C471.455 239.449 471.938 239.612 472.554 239.612C473.178 239.612 473.668 239.451 474.023 239.127C474.379 238.803 474.557 238.311 474.557 237.65V231.047H476.56ZM479.964 233.604L480.053 234.663C480.299 234.285 480.602 233.991 480.962 233.781C481.322 233.572 481.725 233.467 482.172 233.467C482.919 233.467 483.503 233.701 483.922 234.171C484.341 234.64 484.551 235.376 484.551 236.379V241H482.548V236.386C482.548 235.889 482.448 235.537 482.247 235.33C482.047 235.122 481.743 235.019 481.338 235.019C481.074 235.019 480.837 235.072 480.627 235.179C480.417 235.286 480.242 235.438 480.101 235.634V241H478.104V233.604H479.964ZM488.14 241H486.144V233.604H488.14V241ZM488.14 231.833H486.144V230.336H488.14V231.833ZM491.605 233.604L491.694 234.663C491.94 234.285 492.243 233.991 492.604 233.781C492.964 233.572 493.367 233.467 493.813 233.467C494.561 233.467 495.144 233.701 495.563 234.171C495.983 234.64 496.192 235.376 496.192 236.379V241H494.189V236.386C494.189 235.889 494.089 235.537 493.889 235.33C493.688 235.122 493.385 235.019 492.979 235.019C492.715 235.019 492.478 235.072 492.269 235.179C492.059 235.286 491.883 235.438 491.742 235.634V241H489.746V233.604H491.605ZM501.682 238.963C501.682 238.744 501.576 238.555 501.364 238.396C501.152 238.236 500.759 238.095 500.185 237.972C499.31 237.794 498.65 237.531 498.206 237.182C497.761 236.833 497.539 236.358 497.539 235.757C497.539 235.119 497.807 234.578 498.342 234.133C498.878 233.689 499.594 233.467 500.492 233.467C501.436 233.467 502.186 233.688 502.745 234.13C503.303 234.572 503.571 235.13 503.548 235.805L503.534 235.846H501.606C501.606 235.549 501.512 235.308 501.323 235.121C501.134 234.934 500.857 234.841 500.492 234.841C500.169 234.841 499.915 234.919 499.73 235.077C499.545 235.234 499.453 235.431 499.453 235.668C499.453 235.896 499.55 236.083 499.744 236.229C499.937 236.374 500.33 236.504 500.923 236.618C501.834 236.8 502.511 237.068 502.953 237.421C503.395 237.775 503.616 238.261 503.616 238.881C503.616 239.546 503.331 240.09 502.762 240.511C502.192 240.933 501.44 241.144 500.506 241.144C499.521 241.144 498.743 240.894 498.171 240.395C497.599 239.896 497.327 239.327 497.354 238.689L497.368 238.648H499.193C499.207 239.045 499.337 239.332 499.583 239.51C499.829 239.688 500.15 239.776 500.547 239.776C500.916 239.776 501.197 239.703 501.391 239.558C501.585 239.412 501.682 239.214 501.682 238.963ZM507.273 231.792V233.604H508.518V235.005H507.273V238.771C507.273 239.059 507.333 239.264 507.451 239.387C507.57 239.51 507.729 239.571 507.93 239.571C508.035 239.571 508.125 239.566 508.2 239.554C508.275 239.543 508.363 239.523 508.463 239.496L508.634 240.938C508.433 241.007 508.237 241.058 508.046 241.092C507.854 241.126 507.647 241.144 507.424 241.144C506.736 241.144 506.206 240.954 505.834 240.576C505.463 240.198 505.277 239.599 505.277 238.778V235.005H504.197V233.604H505.277V231.792H507.273ZM514.13 241C514.057 240.831 513.994 240.654 513.942 240.467C513.889 240.28 513.852 240.089 513.829 239.893C513.624 240.253 513.354 240.551 513.019 240.788C512.684 241.025 512.284 241.144 511.819 241.144C511.045 241.144 510.448 240.944 510.028 240.545C509.609 240.147 509.399 239.603 509.399 238.915C509.399 238.19 509.679 237.629 510.237 237.23C510.795 236.831 511.61 236.632 512.681 236.632H513.795V236.044C513.795 235.688 513.701 235.413 513.515 235.217C513.328 235.021 513.052 234.923 512.688 234.923C512.364 234.923 512.114 235.001 511.939 235.159C511.764 235.316 511.676 235.534 511.676 235.812L509.748 235.805L509.741 235.764C509.709 235.139 509.98 234.6 510.555 234.147C511.129 233.694 511.883 233.467 512.817 233.467C513.701 233.467 514.419 233.691 514.971 234.14C515.522 234.589 515.798 235.228 515.798 236.058V239.113C515.798 239.46 515.824 239.785 515.876 240.091C515.929 240.396 516.012 240.699 516.126 241H514.13ZM512.305 239.667C512.656 239.667 512.968 239.58 513.241 239.407C513.515 239.234 513.699 239.034 513.795 238.806V237.76H512.681C512.257 237.76 511.936 237.866 511.717 238.078C511.498 238.29 511.389 238.546 511.389 238.847C511.389 239.093 511.471 239.291 511.635 239.441C511.799 239.592 512.022 239.667 512.305 239.667ZM519.407 241H517.411V230.336H519.407V241ZM523.146 241H521.15V230.336H523.146V241ZM533.776 238.854H530.283L529.606 241H527.59L531.015 231.047H533.059L536.47 241H534.453L533.776 238.854ZM530.775 237.288H533.284L532.054 233.378H532.013L530.775 237.288ZM539.061 233.604L539.149 234.663C539.396 234.285 539.699 233.991 540.059 233.781C540.419 233.572 540.822 233.467 541.269 233.467C542.016 233.467 542.599 233.701 543.019 234.171C543.438 234.64 543.647 235.376 543.647 236.379V241H541.645V236.386C541.645 235.889 541.544 235.537 541.344 235.33C541.143 235.122 540.84 235.019 540.435 235.019C540.17 235.019 539.933 235.072 539.724 235.179C539.514 235.286 539.339 235.438 539.197 235.634V241H537.201V233.604H539.061ZM549.479 241C549.406 240.831 549.343 240.654 549.291 240.467C549.238 240.28 549.201 240.089 549.178 239.893C548.973 240.253 548.703 240.551 548.368 240.788C548.033 241.025 547.633 241.144 547.168 241.144C546.393 241.144 545.796 240.944 545.377 240.545C544.958 240.147 544.748 239.603 544.748 238.915C544.748 238.19 545.027 237.629 545.585 237.23C546.144 236.831 546.958 236.632 548.029 236.632H549.144V236.044C549.144 235.688 549.05 235.413 548.863 235.217C548.676 235.021 548.401 234.923 548.036 234.923C547.713 234.923 547.463 235.001 547.288 235.159C547.112 235.316 547.024 235.534 547.024 235.812L545.097 235.805L545.09 235.764C545.058 235.139 545.329 234.6 545.903 234.147C546.478 233.694 547.232 233.467 548.166 233.467C549.05 233.467 549.768 233.691 550.319 234.14C550.871 234.589 551.146 235.228 551.146 236.058V239.113C551.146 239.46 551.173 239.785 551.225 240.091C551.278 240.396 551.361 240.699 551.475 241H549.479ZM547.653 239.667C548.004 239.667 548.316 239.58 548.59 239.407C548.863 239.234 549.048 239.034 549.144 238.806V237.76H548.029C547.605 237.76 547.284 237.866 547.065 238.078C546.847 238.29 546.737 238.546 546.737 238.847C546.737 239.093 546.819 239.291 546.983 239.441C547.147 239.592 547.371 239.667 547.653 239.667ZM554.756 241H552.76V230.336H554.756V241ZM559.062 237.896L559.145 238.307H559.186L560.601 233.604H562.747L559.746 242.107C559.536 242.636 559.252 243.082 558.892 243.444C558.532 243.806 557.992 243.987 557.271 243.987C557.103 243.987 556.947 243.974 556.803 243.946C556.66 243.919 556.485 243.88 556.28 243.83L556.513 242.374C556.572 242.383 556.636 242.392 556.704 242.401C556.772 242.41 556.834 242.415 556.889 242.415C557.217 242.415 557.47 242.334 557.647 242.172C557.825 242.011 557.962 241.809 558.058 241.567L558.29 240.993L555.665 233.604H557.812L559.062 237.896ZM565.919 231.792V233.604H567.163V235.005H565.919V238.771C565.919 239.059 565.978 239.264 566.097 239.387C566.215 239.51 566.375 239.571 566.575 239.571C566.68 239.571 566.77 239.566 566.845 239.554C566.92 239.543 567.008 239.523 567.108 239.496L567.279 240.938C567.079 241.007 566.883 241.058 566.691 241.092C566.5 241.126 566.293 241.144 566.069 241.144C565.381 241.144 564.851 240.954 564.48 240.576C564.109 240.198 563.923 239.599 563.923 238.778V235.005H562.843V233.604H563.923V231.792H565.919ZM570.533 241H568.537V233.604H570.533V241ZM570.533 231.833H568.537V230.336H570.533V231.833ZM575.277 239.612C575.633 239.612 575.918 239.509 576.132 239.301C576.346 239.094 576.453 238.817 576.453 238.471H578.265L578.285 238.512C578.303 239.259 578.022 239.885 577.441 240.388C576.86 240.892 576.139 241.144 575.277 241.144C574.174 241.144 573.325 240.795 572.728 240.098C572.131 239.4 571.832 238.505 571.832 237.411V237.206C571.832 236.117 572.129 235.221 572.724 234.52C573.319 233.818 574.168 233.467 575.271 233.467C576.182 233.467 576.917 233.727 577.475 234.246C578.033 234.766 578.303 235.449 578.285 236.297L578.271 236.338H576.453C576.453 235.955 576.348 235.637 576.139 235.384C575.929 235.131 575.64 235.005 575.271 235.005C574.742 235.005 574.369 235.21 574.153 235.62C573.936 236.03 573.828 236.559 573.828 237.206V237.411C573.828 238.072 573.936 238.604 574.153 239.007C574.369 239.411 574.744 239.612 575.277 239.612ZM583.419 238.963C583.419 238.744 583.313 238.555 583.101 238.396C582.889 238.236 582.496 238.095 581.922 237.972C581.047 237.794 580.387 237.531 579.943 237.182C579.499 236.833 579.276 236.358 579.276 235.757C579.276 235.119 579.544 234.578 580.08 234.133C580.615 233.689 581.332 233.467 582.229 233.467C583.173 233.467 583.924 233.688 584.482 234.13C585.04 234.572 585.308 235.13 585.285 235.805L585.271 235.846H583.344C583.344 235.549 583.249 235.308 583.06 235.121C582.871 234.934 582.594 234.841 582.229 234.841C581.906 234.841 581.652 234.919 581.467 235.077C581.283 235.234 581.19 235.431 581.19 235.668C581.19 235.896 581.287 236.083 581.481 236.229C581.675 236.374 582.068 236.504 582.66 236.618C583.572 236.8 584.248 237.068 584.69 237.421C585.132 237.775 585.354 238.261 585.354 238.881C585.354 239.546 585.069 240.09 584.499 240.511C583.929 240.933 583.177 241.144 582.243 241.144C581.259 241.144 580.481 240.894 579.909 240.395C579.337 239.896 579.064 239.327 579.092 238.689L579.105 238.648H580.931C580.944 239.045 581.074 239.332 581.32 239.51C581.566 239.688 581.888 239.776 582.284 239.776C582.653 239.776 582.935 239.703 583.128 239.558C583.322 239.412 583.419 239.214 583.419 238.963Z" fill="#4CABAA"/>
<path d="M488 276H386C383.791 276 382 277.791 382 280V300C382 302.209 383.791 304 386 304H488C490.209 304 492 302.209 492 300V280C492 277.791 490.209 276 488 276Z" fill="#E3FFFB" stroke="#BCF3EE" stroke-width="2"/>
<path d="M397.303 292.402C397.303 292.02 397.167 291.712 396.896 291.479C396.625 291.247 396.15 291.028 395.471 290.823C394.286 290.481 393.39 290.076 392.784 289.606C392.178 289.137 391.875 288.494 391.875 287.679C391.875 286.863 392.222 286.196 392.917 285.679C393.612 285.162 394.5 284.903 395.58 284.903C396.674 284.903 397.565 285.194 398.253 285.775C398.941 286.356 399.274 287.073 399.251 287.925L399.237 287.966H397.303C397.303 287.506 397.149 287.133 396.841 286.848C396.534 286.563 396.102 286.421 395.546 286.421C395.013 286.421 394.6 286.539 394.309 286.776C394.017 287.013 393.871 287.316 393.871 287.686C393.871 288.023 394.027 288.3 394.339 288.516C394.651 288.733 395.19 288.962 395.956 289.203C397.054 289.508 397.886 289.912 398.451 290.413C399.016 290.914 399.299 291.573 399.299 292.389C399.299 293.241 398.963 293.913 398.29 294.405C397.618 294.897 396.731 295.144 395.628 295.144C394.543 295.144 393.598 294.864 392.791 294.306C391.984 293.748 391.592 292.965 391.615 291.958L391.629 291.917H393.57C393.57 292.509 393.751 292.944 394.114 293.219C394.476 293.495 394.981 293.633 395.628 293.633C396.17 293.633 396.585 293.521 396.872 293.298C397.159 293.075 397.303 292.776 397.303 292.402ZM403.018 285.792V287.604H404.262V289.005H403.018V292.771C403.018 293.059 403.077 293.264 403.195 293.387C403.314 293.51 403.473 293.571 403.674 293.571C403.779 293.571 403.869 293.566 403.944 293.554C404.019 293.543 404.107 293.523 404.207 293.496L404.378 294.938C404.177 295.007 403.981 295.058 403.79 295.092C403.599 295.126 403.391 295.144 403.168 295.144C402.48 295.144 401.95 294.954 401.579 294.576C401.207 294.198 401.021 293.599 401.021 292.778V289.005H399.941V287.604H401.021V285.792H403.018ZM409.874 295C409.801 294.831 409.738 294.654 409.686 294.467C409.634 294.28 409.596 294.089 409.573 293.893C409.368 294.253 409.098 294.551 408.763 294.788C408.428 295.025 408.028 295.144 407.563 295.144C406.789 295.144 406.192 294.944 405.772 294.545C405.353 294.147 405.144 293.603 405.144 292.915C405.144 292.19 405.423 291.629 405.981 291.23C406.539 290.831 407.354 290.632 408.425 290.632H409.539V290.044C409.539 289.688 409.446 289.413 409.259 289.217C409.072 289.021 408.796 288.923 408.432 288.923C408.108 288.923 407.859 289.001 407.683 289.159C407.508 289.316 407.42 289.534 407.42 289.812L405.492 289.805L405.485 289.764C405.453 289.139 405.725 288.6 406.299 288.147C406.873 287.694 407.627 287.467 408.561 287.467C409.446 287.467 410.163 287.691 410.715 288.14C411.266 288.589 411.542 289.228 411.542 290.058V293.113C411.542 293.46 411.568 293.785 411.621 294.091C411.673 294.396 411.756 294.699 411.87 295H409.874ZM408.049 293.667C408.4 293.667 408.712 293.58 408.985 293.407C409.259 293.234 409.443 293.034 409.539 292.806V291.76H408.425C408.001 291.76 407.68 291.866 407.461 292.078C407.242 292.29 407.133 292.546 407.133 292.847C407.133 293.093 407.215 293.291 407.379 293.441C407.543 293.592 407.766 293.667 408.049 293.667ZM412.745 291.363C412.745 290.197 412.999 289.256 413.507 288.54C414.015 287.825 414.727 287.467 415.644 287.467C416.058 287.467 416.423 287.56 416.737 287.747C417.052 287.934 417.321 288.201 417.544 288.547L417.701 287.604H419.424V294.966C419.424 295.927 419.108 296.671 418.477 297.198C417.846 297.724 416.967 297.987 415.842 297.987C415.468 297.987 415.072 297.936 414.652 297.833C414.233 297.731 413.846 297.591 413.49 297.413L413.859 295.923C414.165 296.069 414.476 296.179 414.792 296.254C415.109 296.33 415.454 296.367 415.828 296.367C416.375 296.367 416.777 296.253 417.035 296.025C417.292 295.798 417.421 295.442 417.421 294.959V294.289C417.202 294.567 416.945 294.779 416.648 294.925C416.352 295.071 416.013 295.144 415.63 295.144C414.723 295.144 414.015 294.81 413.507 294.142C412.999 293.474 412.745 292.596 412.745 291.507V291.363ZM414.741 291.507C414.741 292.154 414.851 292.663 415.069 293.035C415.288 293.406 415.644 293.592 416.136 293.592C416.441 293.592 416.7 293.536 416.912 293.424C417.123 293.313 417.293 293.15 417.421 292.936V289.723C417.293 289.499 417.123 289.326 416.912 289.203C416.7 289.08 416.446 289.019 416.149 289.019C415.662 289.019 415.305 289.235 415.08 289.668C414.854 290.101 414.741 290.666 414.741 291.363V291.507ZM423.054 295H421.058V287.604H423.054V295ZM423.054 285.833H421.058V284.336H423.054V285.833ZM426.519 287.604L426.608 288.663C426.854 288.285 427.158 287.991 427.518 287.781C427.878 287.572 428.281 287.467 428.728 287.467C429.475 287.467 430.058 287.701 430.478 288.171C430.897 288.64 431.106 289.376 431.106 290.379V295H429.103V290.386C429.103 289.889 429.003 289.537 428.803 289.33C428.602 289.122 428.299 289.019 427.894 289.019C427.629 289.019 427.392 289.072 427.183 289.179C426.973 289.286 426.797 289.438 426.656 289.634V295H424.66V287.604H426.519ZM432.289 291.363C432.289 290.197 432.543 289.256 433.051 288.54C433.559 287.825 434.271 287.467 435.187 287.467C435.602 287.467 435.967 287.56 436.281 287.747C436.596 287.934 436.865 288.201 437.088 288.547L437.245 287.604H438.968V294.966C438.968 295.927 438.652 296.671 438.021 297.198C437.39 297.724 436.511 297.987 435.386 297.987C435.012 297.987 434.616 297.936 434.196 297.833C433.777 297.731 433.39 297.591 433.034 297.413L433.403 295.923C433.709 296.069 434.02 296.179 434.336 296.254C434.653 296.33 434.998 296.367 435.372 296.367C435.919 296.367 436.321 296.253 436.579 296.025C436.836 295.798 436.965 295.442 436.965 294.959V294.289C436.746 294.567 436.489 294.779 436.192 294.925C435.896 295.071 435.557 295.144 435.174 295.144C434.267 295.144 433.559 294.81 433.051 294.142C432.543 293.474 432.289 292.596 432.289 291.507V291.363ZM434.285 291.507C434.285 292.154 434.394 292.663 434.613 293.035C434.832 293.406 435.187 293.592 435.68 293.592C435.985 293.592 436.244 293.536 436.456 293.424C436.667 293.313 436.837 293.15 436.965 292.936V289.723C436.837 289.499 436.667 289.326 436.456 289.203C436.244 289.08 435.99 289.019 435.693 289.019C435.206 289.019 434.849 289.235 434.623 289.668C434.398 290.101 434.285 290.666 434.285 291.363V291.507ZM444.149 295V285.047H447.513C448.684 285.047 449.598 285.275 450.254 285.73C450.91 286.186 451.238 286.868 451.238 287.774C451.238 288.235 451.116 288.646 450.873 289.008C450.629 289.371 450.274 289.643 449.81 289.825C450.407 289.953 450.854 290.226 451.153 290.646C451.451 291.065 451.601 291.55 451.601 292.102C451.601 293.054 451.286 293.775 450.657 294.265C450.028 294.755 449.137 295 447.984 295H444.149ZM446.145 290.598V293.469H447.984C448.513 293.469 448.916 293.354 449.194 293.124C449.472 292.893 449.611 292.553 449.611 292.102C449.611 291.614 449.493 291.241 449.256 290.984C449.019 290.726 448.645 290.598 448.135 290.598H446.145ZM446.145 289.217H447.581C448.114 289.217 448.524 289.107 448.811 288.889C449.099 288.67 449.242 288.351 449.242 287.932C449.242 287.471 449.097 287.132 448.808 286.913C448.519 286.694 448.087 286.585 447.513 286.585H446.145V289.217ZM457.486 293.934C457.258 294.321 456.969 294.619 456.618 294.829C456.267 295.039 455.864 295.144 455.408 295.144C454.629 295.144 454.019 294.894 453.58 294.395C453.14 293.896 452.92 293.12 452.92 292.067V287.604H454.909V292.081C454.909 292.619 455 293.005 455.183 293.24C455.365 293.474 455.634 293.592 455.989 293.592C456.308 293.592 456.582 293.541 456.81 293.438C457.037 293.335 457.224 293.184 457.37 292.983V287.604H459.366V295H457.664L457.486 293.934ZM462.969 295H460.973V287.604H462.969V295ZM462.969 285.833H460.973V284.336H462.969V285.833ZM466.708 295H464.712V284.336H466.708V295ZM468.041 291.363C468.041 290.197 468.293 289.256 468.796 288.54C469.3 287.825 470.01 287.467 470.926 287.467C471.295 287.467 471.628 287.547 471.924 287.706C472.22 287.866 472.48 288.093 472.703 288.39V284.336H474.706V295H472.99L472.826 294.098C472.594 294.439 472.319 294.699 472.002 294.877C471.686 295.055 471.322 295.144 470.912 295.144C470.005 295.144 469.3 294.811 468.796 294.146C468.293 293.48 468.041 292.601 468.041 291.507V291.363ZM470.03 291.507C470.03 292.154 470.14 292.663 470.358 293.035C470.577 293.406 470.933 293.592 471.425 293.592C471.712 293.592 471.963 293.534 472.177 293.417C472.391 293.301 472.566 293.132 472.703 292.908V289.757C472.566 289.524 472.392 289.343 472.18 289.213C471.968 289.083 471.721 289.019 471.438 289.019C470.951 289.019 470.594 289.235 470.369 289.668C470.143 290.101 470.03 290.666 470.03 291.363V291.507ZM480.25 292.963C480.25 292.744 480.144 292.555 479.932 292.396C479.72 292.236 479.327 292.095 478.753 291.972C477.878 291.794 477.218 291.531 476.774 291.182C476.33 290.833 476.107 290.358 476.107 289.757C476.107 289.119 476.375 288.578 476.911 288.133C477.446 287.689 478.163 287.467 479.061 287.467C480.004 287.467 480.755 287.688 481.313 288.13C481.871 288.572 482.139 289.13 482.116 289.805L482.103 289.846H480.175C480.175 289.549 480.08 289.308 479.891 289.121C479.702 288.934 479.425 288.841 479.061 288.841C478.737 288.841 478.483 288.919 478.298 289.077C478.114 289.234 478.021 289.431 478.021 289.668C478.021 289.896 478.118 290.083 478.312 290.229C478.506 290.374 478.899 290.504 479.491 290.618C480.403 290.8 481.079 291.068 481.521 291.421C481.964 291.775 482.185 292.261 482.185 292.881C482.185 293.546 481.9 294.09 481.33 294.511C480.76 294.933 480.008 295.144 479.074 295.144C478.09 295.144 477.312 294.894 476.74 294.395C476.168 293.896 475.895 293.327 475.923 292.689L475.936 292.648H477.762C477.775 293.045 477.905 293.332 478.151 293.51C478.397 293.688 478.719 293.776 479.115 293.776C479.484 293.776 479.766 293.703 479.959 293.558C480.153 293.412 480.25 293.214 480.25 292.963Z" fill="#4CABAA"/>
<path d="M388 324H327C324.791 324 323 325.791 323 328V348C323 350.209 324.791 352 327 352H388C390.209 352 392 350.209 392 348V328C392 325.791 390.209 324 388 324Z" fill="#E3FFFB" stroke="#BCF3EE" stroke-width="2"/>
<path d="M334.926 341.469H339.355V343H332.93V333.047H334.926V341.469ZM340.032 339.233C340.032 338.131 340.34 337.227 340.955 336.523C341.57 335.819 342.423 335.467 343.512 335.467C344.605 335.467 345.462 335.818 346.082 336.52C346.702 337.221 347.012 338.126 347.012 339.233V339.377C347.012 340.489 346.703 341.395 346.085 342.094C345.468 342.794 344.615 343.144 343.525 343.144C342.432 343.144 341.576 342.794 340.958 342.094C340.341 341.395 340.032 340.489 340.032 339.377V339.233ZM342.021 339.377C342.021 340.051 342.14 340.593 342.377 341C342.614 341.408 342.997 341.612 343.525 341.612C344.04 341.612 344.417 341.407 344.657 340.997C344.896 340.587 345.016 340.047 345.016 339.377V339.233C345.016 338.577 344.895 338.042 344.653 337.627C344.412 337.212 344.031 337.005 343.512 337.005C342.997 337.005 342.62 337.213 342.38 337.63C342.141 338.047 342.021 338.582 342.021 339.233V339.377ZM347.935 339.363C347.935 338.197 348.189 337.256 348.697 336.54C349.205 335.825 349.917 335.467 350.833 335.467C351.248 335.467 351.612 335.56 351.927 335.747C352.241 335.934 352.51 336.201 352.733 336.547L352.891 335.604H354.613V342.966C354.613 343.927 354.298 344.671 353.667 345.198C353.035 345.724 352.157 345.987 351.031 345.987C350.658 345.987 350.261 345.936 349.842 345.833C349.423 345.731 349.035 345.591 348.68 345.413L349.049 343.923C349.354 344.069 349.665 344.179 349.982 344.254C350.299 344.33 350.644 344.367 351.018 344.367C351.564 344.367 351.967 344.253 352.224 344.025C352.482 343.798 352.61 343.442 352.61 342.959V342.289C352.392 342.567 352.134 342.779 351.838 342.925C351.542 343.071 351.202 343.144 350.819 343.144C349.912 343.144 349.205 342.81 348.697 342.142C348.189 341.474 347.935 340.596 347.935 339.507V339.363ZM349.931 339.507C349.931 340.154 350.04 340.663 350.259 341.035C350.478 341.406 350.833 341.592 351.325 341.592C351.631 341.592 351.889 341.536 352.101 341.424C352.313 341.313 352.483 341.15 352.61 340.936V337.723C352.483 337.499 352.313 337.326 352.101 337.203C351.889 337.08 351.635 337.019 351.339 337.019C350.851 337.019 350.495 337.235 350.269 337.668C350.043 338.101 349.931 338.666 349.931 339.363V339.507ZM355.837 339.363C355.837 338.197 356.091 337.256 356.599 336.54C357.107 335.825 357.819 335.467 358.735 335.467C359.15 335.467 359.515 335.56 359.829 335.747C360.144 335.934 360.412 336.201 360.636 336.547L360.793 335.604H362.516V342.966C362.516 343.927 362.2 344.671 361.569 345.198C360.938 345.724 360.059 345.987 358.934 345.987C358.56 345.987 358.163 345.936 357.744 345.833C357.325 345.731 356.938 345.591 356.582 345.413L356.951 343.923C357.257 344.069 357.568 344.179 357.884 344.254C358.201 344.33 358.546 344.367 358.92 344.367C359.467 344.367 359.869 344.253 360.126 344.025C360.384 343.798 360.513 343.442 360.513 342.959V342.289C360.294 342.567 360.036 342.779 359.74 342.925C359.444 343.071 359.104 343.144 358.722 343.144C357.815 343.144 357.107 342.81 356.599 342.142C356.091 341.474 355.837 340.596 355.837 339.507V339.363ZM357.833 339.507C357.833 340.154 357.942 340.663 358.161 341.035C358.38 341.406 358.735 341.592 359.228 341.592C359.533 341.592 359.792 341.536 360.003 341.424C360.215 341.313 360.385 341.15 360.513 340.936V337.723C360.385 337.499 360.215 337.326 360.003 337.203C359.792 337.08 359.537 337.019 359.241 337.019C358.754 337.019 358.397 337.235 358.171 337.668C357.946 338.101 357.833 338.666 357.833 339.363V339.507ZM366.146 343H364.149V335.604H366.146V343ZM366.146 333.833H364.149V332.336H366.146V333.833ZM369.611 335.604L369.7 336.663C369.946 336.285 370.249 335.991 370.609 335.781C370.969 335.572 371.373 335.467 371.819 335.467C372.567 335.467 373.15 335.701 373.569 336.171C373.989 336.64 374.198 337.376 374.198 338.379V343H372.195V338.386C372.195 337.889 372.095 337.537 371.895 337.33C371.694 337.122 371.391 337.019 370.985 337.019C370.721 337.019 370.484 337.072 370.274 337.179C370.065 337.286 369.889 337.438 369.748 337.634V343H367.752V335.604H369.611ZM375.381 339.363C375.381 338.197 375.635 337.256 376.143 336.54C376.651 335.825 377.363 335.467 378.279 335.467C378.694 335.467 379.059 335.56 379.373 335.747C379.688 335.934 379.956 336.201 380.18 336.547L380.337 335.604H382.06V342.966C382.06 343.927 381.744 344.671 381.113 345.198C380.482 345.724 379.603 345.987 378.478 345.987C378.104 345.987 377.707 345.936 377.288 345.833C376.869 345.731 376.481 345.591 376.126 345.413L376.495 343.923C376.8 344.069 377.111 344.179 377.428 344.254C377.745 344.33 378.09 344.367 378.464 344.367C379.011 344.367 379.413 344.253 379.67 344.025C379.928 343.798 380.057 343.442 380.057 342.959V342.289C379.838 342.567 379.58 342.779 379.284 342.925C378.988 343.071 378.648 343.144 378.266 343.144C377.359 343.144 376.651 342.81 376.143 342.142C375.635 341.474 375.381 340.596 375.381 339.507V339.363ZM377.377 339.507C377.377 340.154 377.486 340.663 377.705 341.035C377.924 341.406 378.279 341.592 378.771 341.592C379.077 341.592 379.335 341.536 379.547 341.424C379.759 341.313 379.929 341.15 380.057 340.936V337.723C379.929 337.499 379.759 337.326 379.547 337.203C379.335 337.08 379.081 337.019 378.785 337.019C378.298 337.019 377.941 337.235 377.715 337.668C377.49 338.101 377.377 338.666 377.377 339.363V339.507Z" fill="#4CABAA"/>
<path opacity="0.08" d="M253.489 310C329.791 310 391.646 250.722 391.646 177.6C391.646 104.478 329.791 45.2001 253.489 45.2001C177.188 45.2001 115.333 104.478 115.333 177.6C115.333 250.722 177.188 310 253.489 310Z" fill="#006DF6"/>
<path opacity="0.08" d="M253.489 260.71C301.377 260.71 340.197 223.5 340.197 177.6C340.197 131.7 301.377 94.4904 253.489 94.4904C205.602 94.4904 166.782 131.7 166.782 177.6C166.782 223.5 205.602 260.71 253.489 260.71Z" fill="#006DF6"/>
<path d="M252.418 229.409C281.031 229.409 304.226 206.214 304.226 177.6C304.226 148.987 281.031 125.791 252.418 125.791C223.805 125.791 200.609 148.987 200.609 177.6C200.609 206.214 223.805 229.409 252.418 229.409Z" fill="#006DF6"/>
<g clip-path="url(#clip0)">
<path d="M249.932 162.735H243.347V156.403H243.601C247.097 156.403 249.932 159.238 249.932 162.735Z" fill="white"/>
<path fill-rule="evenodd" clip-rule="evenodd" d="M238.283 170.21H243.347H249.932C249.932 170.21 259.739 170.142 261.048 170.323C262.358 170.504 267.306 171.769 266.884 179.562V181.911C267.328 189.388 262.38 191.285 259.406 191.715C257.077 192.053 249.932 191.715 249.932 191.715V171.77H243.347L243.32 196.797C243.32 197.52 243.874 198.107 244.584 198.13C248.024 198.22 257.476 198.469 261.026 197.881C265.531 197.136 273.119 193.906 273.119 183.718V178.297C273.119 166.46 262.735 164.653 260.937 164.427C259.14 164.201 232.603 164.427 232.603 164.427C232.603 167.635 235.154 170.21 238.283 170.21Z" fill="white"/>
</g>
<defs>
<clipPath id="clip0">
<rect x="231.833" y="156.301" width="41.1678" height="42.4543" fill="white"/>
</clipPath>
</defs>
</svg>
